# AST/ASF file generated using VICON BodyLanguage
# -----------------------------------------------
:version 1.10
:name VICON
:units
  mass 1.0
  length 0.45
  angle deg
:documentation
   .ast/.asf automatically generated from VICON data using
   VICON BodyBuilder and BodyLanguage model FoxedUp or BRILLIANT.MOD
:root
   order TX TY TZ RX RY RZ
   axis XYZ
   position 0 0 0  
   orientation 0 0 0 
:bonedata
  begin
     id 1 
     name lhipjoint
     direction 0.561001 -0.76473 0.316963 
     length 2.4722 
     axis 0 0 0  XYZ
  end
  begin
     id 2 
     name lfemur
     direction 0.34202 -0.939693 0  
     length 7.59403  
     axis 0 0 20  XYZ
    dof rx ry rz
    limits (-160.0 20.0)
           (-70.0 70.0)
           (-60.0 70.0)
  end
  begin
     id 3 
     name ltibia
     direction 0.34202 -0.939693 0   
     length 7.89655   
     axis 0 0 20   XYZ
    dof rx
    limits (-10.0 170.0)
  end
  begin
     id 4 
     name lfoot
     direction 0.061296 -0.168409 0.98381   
     length 2.73287   
     axis -90 7.62852e-016 20   XYZ
    dof rx rz
    limits (-45.0 90.0)
           (-70.0 20.0)
  end
  begin
     id 5 
     name ltoes
     direction 1.53547e-011 -4.21984e-011 1   
     length 1.37057   
     axis -90 7.62852e-016 20   XYZ
    dof rx
    limits (-90.0 20.0)
  end
  begin
     id 6 
     name rhipjoint
     direction -0.559611 -0.765599 0.317323   
     length 2.46939  
     axis 0 0 0  XYZ 
  end
  begin
     id 7 
     name rfemur
     direction -0.34202 -0.939693 0   
     length 7.53712   
     axis 0 0 -20   XYZ
    dof rx ry rz
    limits (-160.0 20.0)
           (-70.0 70.0)
           (-70.0 60.0)
  end
  begin
     id 8 
     name rtibia
     direction -0.34202 -0.939693 0   
     length 8.12549   
     axis 0 0 -20   XYZ
    dof rx
    limits (-10.0 170.0)
 end
 begin
     id 9 
     name rfoot
     direction -0.066984 -0.184037 0.980634   
     length 2.67541  
     axis -90 -7.62852e-016 -20   XYZ
    dof rx rz
    limits (-45.0 90.0)
           (-20.0 70.0)
  end
  begin
     id 10 
     name rtoes
     direction -1.53549e-011 -4.21786e-011 1   
     length 1.34085   
     axis -90 -7.62852e-016 -20   XYZ
    dof rx
    limits (-90.0 20.0)
  end
  begin
     id 11 
     name lowerback
     direction -0.0522728 0.992594 -0.109658   
     length 2.05633   
     axis 0 0 0   XYZ
    dof rx ry rz
    limits (-20.0 45.0)
           (-30.0 30.0)
           (-30.0 30.0)
  end
  begin
     id 12 
     name upperback
     direction 0.00589338 0.999977 0.00335704   
     length 2.05845   
     axis 0 0 0   XYZ
    dof rx ry rz
    limits (-20.0 45.0)
           (-30.0 30.0)
           (-30.0 30.0)
  end
  begin
     id 13 
     name thorax
     direction 0.0292928 0.998059 0.0549487   
     length 2.09281   
     axis 0 0 0   XYZ
    dof rx ry rz
    limits (-20.0 45.0)
           (-30.0 30.0)
           (-30.0 30.0)
  end
  begin
     id 14 
     name lowerneck
     direction 0.0356368 0.980775 0.191858   
     length 1.84767   
     axis 0 0 0   XYZ
    dof rx ry rz
    limits (-20.0 45.0)
           (-30.0 30.0)
           (-30.0 30.0)
  end
  begin
     id 15 
     name upperneck
     direction -0.0227605 0.98931 -0.14404   
     length 1.89582   
     axis 0 0 0   XYZ
    dof rx ry rz
    limits (-20.0 45.0)
           (-30.0 30.0)
           (-30.0 30.0)
  end
  begin
     id 16
     name head
     direction -0.00932985 0.997511 -0.0698904  
     length 1.90213  
     axis 0 0 0   XYZ
    dof rx ry rz
    limits (-20.0 45.0)
           (-30.0 30.0)
           (-30.0 30.0)
  end
  begin
     id 17 
     name lclavicle
     direction 0.873442 0.479511 0.0846686  
     length 3.41193  
     axis 0 0 0   XYZ
    dof ry rz
    limits (-20.0 10.0)
           (0.0 20.0)
  end
  begin
     id 18 
     name lhumerus
     direction 1 -4.4897e-011 -5.62117e-018   
     length 5.59864   
     axis 180 -30 -90   XYZ
    dof rx ry rz
    limits (-60.0 90.0)
           (-90.0 90.0)
           (-90.0 90.0)
  end
  begin
     id 19
     name lradius
     direction 1 -4.48966e-011 -6.26295e-027   
     length 3.59542   
     axis 180 -30 -90   XYZ
    dof rx
    limits (-10.0 170.0)
  end
  begin
     id 20
     name lwrist
     direction 1 -4.48947e-011 -1.74096e-026   
     length 1.79771   
     axis 1.04567e-014 90 90   XYZ
    dof ry
    limits (-180.0 0.0)
 end
  begin
     id 21 
     name lhand
     direction 1 -4.49085e-011 -3.48469e-026   
     length 0.572014   
     axis 2.22196e-014 90 90   XYZ
    dof rx rz
    limits (-90.0 90.0)
           (-45.0 45.0)
  end
  begin
     id 22 
     name lfingers
     direction 1 -4.48884e-011 -6.96135e-026   
     length 0.461173   
     axis 4.44383e-014 90 90   XYZ
    dof rx
    limits (0.0 90.0)
  end
  begin
     id 23
     name lthumb
     direction 0.707107 -6.34976e-011 0.707107   
     length 0.662154   
     axis -90 45 -5.4397e-014   XYZ
    dof rx rz
    limits (-45.0 45.0)
           (-45.0 45.0)
  end
  begin
     id 24 
     name rclavicle
     direction -0.890242 0.443271 0.104786   
     length 3.46753  
     axis 0 0 0   XYZ 
    dof ry rz
    limits (-10.0 20.0)
           (-20.0 0.0)
  end
  begin
     id 25 
     name rhumerus
     direction -1 -4.48963e-011 -5.41723e-018  
     length 5.8094   
     axis 180 30 90   XYZ
    dof rx ry rz
    limits (-90.0 60.0)
           (-90.0 90.0)
           (-90.0 90.0)
  end
  begin
     id 26 
     name rradius
     direction -1 -4.48958e-011 -6.51059e-027   
     length 3.66953   
     axis 180 30 90   XYZ
    dof rx
    limits (-10.0 170.0)
  end
  begin
     id 27 
     name rwrist
     direction -1 -4.48975e-011 -1.74124e-026   
     length 1.83476   
     axis 1.04567e-014 -90 -90   XYZ
    dof ry
    limits (-180.0 0.0)
  end
  begin
     id 28
     name rhand
     direction -1 -4.49013e-011 -3.48326e-026   
     length 0.57843   
     axis 2.22196e-014 -90 -90   XYZ
    dof rx rz
    limits (-90.0 90.0)
           (-45.0 45.0)
  end
  begin
     id 29
     name rfingers
     direction -1 -4.49023e-011 -6.9669e-026   
     length 0.466345   
     axis 4.44383e-014 -90 -90   XYZ
    dof rx
    limits (0.0 90.0)
  end
  begin
     id 30
     name rthumb
     direction -0.707107 -6.34926e-011 0.707107   
     length 0.669581   
     axis -90 -45 5.4397e-014   XYZ
    dof rx rz
    limits (-45.0 45.0)
           (-45.0 45.0)
  end
:hierarchy
  begin
    root lhipjoint rhipjoint lowerback
    lhipjoint lfemur
    lfemur ltibia
    ltibia lfoot
    lfoot ltoes
    rhipjoint rfemur
    rfemur rtibia
    rtibia rfoot
    rfoot rtoes
    lowerback upperback
    upperback thorax
    thorax lowerneck lclavicle rclavicle
    lowerneck upperneck
    upperneck head
    lclavicle lhumerus
    lhumerus lradius
    lradius lwrist
    lwrist lhand lthumb
    lhand lfingers
    rclavicle rhumerus
    rhumerus rradius
    rradius rwrist
    rwrist rhand rthumb
    rhand rfingers
  end

#!OML:ASF H:\SkateBoarding\Project 1\Capture day 1\Session 1\Skater.ASF
:FULLY-SPECIFIED
:DEGREES
116
root 5.92537 16.4022 7.67633 10.647 30.5812 6.5037
lowerback 8.3027 -3.33894 -3.61863
upperback -2.2227 -4.88179 -0.368515
thorax -6.72042 -2.25433 2.31042
lowerneck -18.6437 0.134251 1.1339
upperneck 40.8655 2.58585 -5.45788
head 18.7518 0.542949 -2.23928
rclavicle 1.41883e-014 2.18663e-015
rhumerus -25.4363 25.4726 -78.166
rradius 40.2026
rwrist -8.304
rhand -28.0111 -2.31893
rfingers 7.12502
rthumb -1.39667 -32.2941
lclavicle 1.41883e-014 2.18663e-015
lhumerus -5.06387 -22.4533 74.1893
lradius 91.9732
lwrist 33.2587
lhand -21.2253 14.2483
lfingers 7.12502
lthumb 5.1568 44.1656
rfemur -59.0567 3.64118 5.84947
rtibia 89.9233
rfoot -32.0308 19.6155
rtoes -9.99877
lfemur 36.2962 -22.994 -9.69442
ltibia 9.22361e-014
lfoot -20.8151 25.4855
ltoes 16.0198
117
root 5.88288 16.5036 8.07877 10.9573 31.0351 6.88144
lowerback 8.06015 -3.41447 -3.78505
upperback -2.26847 -5.00436 -0.581539
thorax -6.62872 -2.31448 2.18025
lowerneck -18.6077 0.145441 1.0022
upperneck 40.9179 2.56647 -5.22583
head 18.764 0.549153 -2.10849
rclavicle -1.59077e-013 -1.53064e-014
rhumerus -25.2891 25.7253 -78.1996
rradius 40.5359
rwrist -8.58505
rhand -28.1838 -2.23593
rfingers 7.12502
rthumb -1.56343 -32.2099
lclavicle -1.59077e-013 -1.53064e-014
lhumerus -4.01707 -22.4193 73.759
lradius 92.3013
lwrist 32.7606
lhand -21.6209 14.0662
lfingers 7.12502
lthumb 4.77483 43.9924
rfemur -58.1202 3.82222 6.06441
rtibia 89.3511
rfoot -33.0594 18.8253
rtoes -10.5323
lfemur 36.1503 -23.4396 -9.93849
ltibia 3.81667e-014
lfoot -16.459 33.4136
ltoes 11.1422
118
root 5.83614 16.595 8.4729 11.1071 31.4902 7.21394
lowerback 7.98386 -3.43089 -3.96885
upperback -2.2618 -5.05518 -0.801944
thorax -6.58021 -2.33777 2.05264
lowerneck -18.5494 0.110923 0.95662
upperneck 40.9599 2.4583 -5.03573
head 18.7605 0.52898 -2.0312
rclavicle 3.67752e-014 7.95139e-016
rhumerus -25.2258 25.7393 -78.1923
rradius 40.9522
rwrist -8.75528
rhand -28.6611 -2.10583
rfingers 7.12502
rthumb -2.02445 -32.076
lclavicle 3.67752e-014 7.95139e-016
lhumerus -2.88637 -22.4847 73.3851
lradius 92.4901
lwrist 32.1581
lhand -21.8038 13.8255
lfingers 7.12502
lthumb 4.59819 43.7556
rfemur -57.0709 4.15716 6.33395
rtibia 88.7984
rfoot -34.1273 17.9661
rtoes -10.9792
lfemur 36.1187 -23.9161 -10.1784
ltibia -3.49861e-014
lfoot -11.8944 37.5516
ltoes 8.7414
119
root 5.78717 16.6781 8.86072 11.1491 31.9368 7.53603
lowerback 8.00594 -3.4114 -4.16886
upperback -2.1944 -5.06336 -1.0491
thorax -6.52722 -2.34051 1.90548
lowerneck -18.5525 0.045567 0.889439
upperneck 41.04 2.28107 -4.77252
head 18.7917 0.487983 -1.93097
rclavicle -2.19906e-014 8.94531e-016
rhumerus -25.1817 25.7583 -78.1996
rradius 41.3857
rwrist -8.90638
rhand -28.9063 -2.01807
rfingers 7.12502
rthumb -2.26124 -31.9858
lclavicle -2.19906e-014 8.94531e-016
lhumerus -1.70197 -22.6347 73.0623
lradius 92.5732
lwrist 31.5179
lhand -22.131 13.5328
lfingers 7.12502
lthumb 4.28229 43.4695
rfemur -55.9428 4.5788 6.60615
rtibia 88.2652
rfoot -35.1375 17.2767
rtoes -11.1248
lfemur 36.2425 -24.3768 -10.5032
ltibia -3.18055e-015
lfoot -6.1316 39.9063
ltoes 5.74318
120
root 5.73951 16.7517 9.24129 11.0008 32.4202 7.75007
lowerback 8.18844 -3.36839 -4.32718
upperback -2.08258 -5.0388 -1.23325
thorax -6.51828 -2.32651 1.80656
lowerneck -18.5973 -0.0411596 0.802596
upperneck 41.1484 2.09591 -4.54312
head 18.8536 0.436181 -1.84631
rclavicle -1.81888e-014 -3.77691e-015
rhumerus -25.1983 25.8216 -78.1009
rradius 41.9469
rwrist -9.13285
rhand -29.2475 -1.94244
rfingers 7.12502
rthumb -2.59078 -31.9065
lclavicle -1.81888e-014 -3.77691e-015
lhumerus -0.511144 -22.7965 72.831
lradius 92.5787
lwrist 30.8326
lhand -22.5197 13.4106
lfingers 7.12502
lthumb 3.90692 43.3545
rfemur -54.6843 4.92666 7.02235
rtibia 87.7497
rfoot -36.1504 16.4842
rtoes -11.6461
lfemur 36.5457 -24.8351 -10.8723
ltibia -5.08889e-014
lfoot -0.0588653 40.2481
ltoes 2.40112
121
root 5.69209 16.8279 9.61991 10.7973 32.9803 7.92465
lowerback 8.40948 -3.33553 -4.40343
upperback -1.95722 -5.02251 -1.44147
thorax -6.52538 -2.31993 1.64035
lowerneck -18.597 -0.143062 0.755965
upperneck 41.2563 1.86465 -4.30143
head 18.9016 0.375337 -1.77185
rclavicle 1.50145e-014 7.15625e-015
rhumerus -25.2373 25.8306 -78.0198
rradius 42.4807
rwrist -9.3102
rhand -29.0695 -1.77944
rfingers 7.12502
rthumb -2.4188 -31.7455
lclavicle 1.50145e-014 7.15625e-015
lhumerus 0.618184 -23.0275 72.6817
lradius 92.5037
lwrist 30.1542
lhand -22.772 13.1285
lfingers 7.12502
lthumb 3.66329 43.0767
rfemur -53.3265 5.28268 7.49639
rtibia 87.1776
rfoot -37.1785 15.6884
rtoes -12.0675
lfemur 30.3121 -25.3027 -11.3038
ltibia 12.872
lfoot 3.18535 33.5477
ltoes -2.85433
